<svg width="35" height="35" viewBox="0 0 35 35" fill="none" xmlns="http://www.w3.org/2000/svg">
<path d="M25.1875 0.84375H9.8125C7.43462 0.846294 5.15486 1.79203 3.47345 3.47345C1.79203 5.15486 0.846294 7.43462 0.84375 9.8125V25.1875C0.846294 27.5654 1.79203 29.8451 3.47345 31.5266C5.15486 33.208 7.43462 34.1537 9.8125 34.1562H25.1875C27.5654 34.1537 29.8451 33.208 31.5266 31.5266C33.208 29.8451 34.1537 27.5654 34.1562 25.1875V9.8125C34.1537 7.43462 33.208 5.15486 31.5266 3.47345C29.8451 1.79203 27.5654 0.846294 25.1875 0.84375ZM17.5 25.1875C15.9796 25.1875 14.4933 24.7366 13.2291 23.8919C11.9649 23.0472 10.9795 21.8466 10.3977 20.4419C9.81583 19.0372 9.66359 17.4915 9.96021 16.0002C10.2568 14.509 10.989 13.1392 12.0641 12.0641C13.1392 10.989 14.509 10.2568 16.0002 9.96021C17.4915 9.66359 19.0372 9.81583 20.4419 10.3977C21.8466 10.9795 23.0472 11.9649 23.8919 13.2291C24.7366 14.4933 25.1875 15.9796 25.1875 17.5C25.1854 19.5382 24.3748 21.4923 22.9335 22.9335C21.4923 24.3748 19.5382 25.1854 17.5 25.1875ZM27.1094 9.8125C26.7293 9.8125 26.3577 9.69978 26.0416 9.48861C25.7256 9.27743 25.4793 8.97727 25.3338 8.62609C25.1883 8.27492 25.1503 7.88849 25.2244 7.51569C25.2986 7.14288 25.4816 6.80043 25.7504 6.53165C26.0192 6.26288 26.3616 6.07983 26.7344 6.00568C27.1072 5.93152 27.4937 5.96958 27.8448 6.11504C28.196 6.26051 28.4962 6.50684 28.7074 6.82289C28.9185 7.13894 29.0312 7.51051 29.0312 7.89062C29.0312 8.40034 28.8288 8.88917 28.4683 9.2496C28.1079 9.61002 27.6191 9.8125 27.1094 9.8125ZM22.625 17.5C22.625 18.5136 22.3244 19.5045 21.7613 20.3473C21.1981 21.1901 20.3977 21.847 19.4613 22.2349C18.5248 22.6228 17.4943 22.7243 16.5002 22.5265C15.506 22.3288 14.5928 21.8407 13.8761 21.1239C13.1593 20.4072 12.6712 19.494 12.4735 18.4998C12.2757 17.5057 12.3772 16.4752 12.7651 15.5387C13.153 14.6023 13.8099 13.8019 14.6527 13.2387C15.4955 12.6756 16.4864 12.375 17.5 12.375C18.8592 12.375 20.1628 12.915 21.1239 13.8761C22.085 14.8372 22.625 16.1408 22.625 17.5Z" fill="#545454"/>
</svg>
