<svg width="38" height="30" viewBox="0 0 38 30" fill="none" xmlns="http://www.w3.org/2000/svg">
<path d="M12.3144 29.9197C26.1886 29.9197 33.7793 18.5632 33.7793 8.71781C33.7793 8.39855 33.7721 8.07219 33.7578 7.75293C35.2344 6.69814 36.5087 5.39164 37.5208 3.89481C36.1456 4.49918 34.6855 4.89388 33.1903 5.06545C34.7646 4.13336 35.9433 2.66911 36.508 0.944118C35.027 1.81106 33.4074 2.42261 31.7186 2.75256C30.5807 1.5583 29.0762 0.767562 27.4377 0.502593C25.7992 0.237625 24.1179 0.513187 22.6539 1.28668C21.1898 2.06017 20.0245 3.2885 19.3381 4.78177C18.6517 6.27504 18.4824 7.95007 18.8565 9.54789C15.8576 9.39925 12.9239 8.62979 10.2455 7.28939C7.5671 5.94899 5.20375 4.06757 3.3087 1.76711C2.34553 3.40737 2.0508 5.34834 2.48441 7.19554C2.91801 9.04273 4.04742 10.6575 5.64309 11.7118C4.44516 11.6742 3.27347 11.3556 2.22482 10.7824V10.8746C2.22375 12.5959 2.82622 14.2645 3.92981 15.5967C5.0334 16.9289 6.57001 17.8425 8.27843 18.1822C7.16874 18.4821 6.00407 18.5258 4.87454 18.3099C5.35662 19.7902 6.29458 21.085 7.55751 22.0135C8.82044 22.9419 10.3453 23.4578 11.9194 23.489C9.24713 25.5624 5.94613 26.687 2.54805 26.6817C1.94542 26.6808 1.34339 26.6443 0.745178 26.5724C4.19727 28.76 8.21298 29.9218 12.3144 29.9197Z" fill="#535353"/>
</svg>
