<svg width="21" height="22" viewBox="0 0 21 22" fill="none" xmlns="http://www.w3.org/2000/svg">
<path d="M17.9397 3.20106C16.9722 2.18238 15.8198 1.3747 14.5498 0.825119C13.2797 0.275542 11.9174 -0.00492811 10.5422 6.55264e-05C4.7804 6.55264e-05 0.0844223 4.89505 0.0844223 10.901C0.0844223 12.826 0.569849 14.696 1.47739 16.346L0 22L5.5402 20.482C7.07035 21.351 8.79045 21.813 10.5422 21.813C16.304 21.813 21 16.918 21 10.912C21 7.99704 19.9131 5.25805 17.9397 3.20106ZM10.5422 19.965C8.9804 19.965 7.45025 19.525 6.11005 18.7L5.79347 18.502L2.501 19.404L3.37688 16.06L3.16583 15.719C2.29812 14.2747 1.83738 12.6052 1.83618 10.901C1.83618 5.90705 5.7407 1.83706 10.5317 1.83706C12.8533 1.83706 15.0377 2.78306 16.6734 4.49905C17.4833 5.33941 18.1251 6.33898 18.5617 7.43981C18.9982 8.54065 19.2208 9.72086 19.2166 10.912C19.2377 15.906 15.3332 19.965 10.5422 19.965ZM15.3121 13.189C15.0482 13.057 13.7608 12.397 13.5286 12.298C13.2859 12.21 13.1171 12.166 12.9377 12.43C12.7583 12.705 12.2623 13.321 12.1146 13.497C11.9668 13.684 11.8085 13.706 11.5447 13.563C11.2809 13.431 10.4367 13.134 9.44472 12.21C8.66382 11.484 8.14673 10.593 7.98844 10.318C7.8407 10.043 7.96734 9.90004 8.10452 9.75704C8.2206 9.63604 8.36834 9.43804 8.49497 9.28404C8.62161 9.13004 8.67437 9.00904 8.75879 8.83304C8.84321 8.64604 8.801 8.49204 8.73769 8.36004C8.67437 8.22804 8.14673 6.88605 7.93568 6.33605C7.72462 5.80805 7.50301 5.87405 7.34472 5.86305H6.83819C6.65879 5.86305 6.38442 5.92905 6.14171 6.20405C5.90955 6.47905 5.23417 7.13904 5.23417 8.48104C5.23417 9.82304 6.17337 11.121 6.3 11.297C6.42663 11.484 8.14673 14.234 10.7638 15.411C11.3864 15.697 11.8719 15.862 12.2518 15.983C12.8744 16.192 13.4442 16.159 13.898 16.093C14.4045 16.016 15.4492 15.433 15.6603 14.795C15.8819 14.157 15.8819 13.618 15.808 13.497C15.7342 13.376 15.5759 13.321 15.3121 13.189Z" fill="#111111"/>
</svg>
